<?xml version="1.0" encoding="UTF-8" standalone="no"?><!DOCTYPE svg PUBLIC "-//W3C//DTD SVG 1.1//EN" "http://www.w3.org/Graphics/SVG/1.1/DTD/svg11.dtd"><svg width="100%" height="100%" viewBox="0 0 90 90" version="1.1" xmlns="http://www.w3.org/2000/svg" xmlns:xlink="http://www.w3.org/1999/xlink" xml:space="preserve" xmlns:serif="http://www.serif.com/" style="fill-rule:evenodd;clip-rule:evenodd;stroke-linecap:round;stroke-linejoin:round;stroke-miterlimit:1.5;"><path d="M64.094,13.749c-0,-5.269 -4.278,-9.547 -9.547,-9.547l-19.094,-0c-5.269,-0 -9.547,4.278 -9.547,9.547l0,62.502c0,5.269 4.278,9.547 9.547,9.547l19.094,0c5.269,0 9.547,-4.278 9.547,-9.547l-0,-62.502Z" style="fill:#35c8da;"/><g><circle cx="36.471" cy="56.557" r="11.304" style="fill:#f60;"/><circle cx="58.808" cy="40.745" r="11.304" style="fill:#fc0;"/><circle cx="31.192" cy="40.488" r="11.304" style="fill:#0089cc;"/><circle cx="53.786" cy="56.557" r="11.304" style="fill:#009939;"/><circle cx="45" cy="30.443" r="11.304" style="fill:#bf0000;"/><path d="M47.518,40.745c-0,0.244 0.027,0.474 0.041,0.704c5.009,-1.151 8.745,-5.632 8.745,-10.992c-0,-0.244 -0.027,-0.474 -0.041,-0.704c-5.009,1.15 -8.745,5.631 -8.745,10.992Z" style="fill:#fc0007;fill-rule:nonzero;"/><path d="M49.007,46.336c1.95,3.398 5.605,5.699 9.801,5.699c1.72,0 3.331,-0.392 4.779,-1.069c-1.949,-3.398 -5.604,-5.699 -9.801,-5.699c-1.706,-0 -3.33,0.379 -4.779,1.069Z" style="fill:#1cd306;fill-rule:nonzero;"/><path d="M26.724,50.858c1.368,0.595 2.884,0.92 4.468,0.92c4.156,0 7.784,-2.261 9.747,-5.604c-1.368,-0.596 -2.884,-0.921 -4.468,-0.921c-4.169,0.014 -7.784,2.261 -9.747,5.605Z" style="fill:#0c5e87;fill-rule:nonzero;"/><path d="M33.75,29.495c-0.027,0.312 -0.054,0.637 -0.054,0.948c0,5.361 3.736,9.828 8.745,10.993c0.027,-0.312 0.055,-0.637 0.055,-0.948c-0,-5.361 -3.737,-9.828 -8.746,-10.993Z" style="fill:#6b0001;fill-rule:nonzero;"/><path d="M42.496,56.557c-0,2.762 0.988,5.28 2.639,7.243c1.638,-1.963 2.64,-4.495 2.64,-7.243c0,-2.762 -0.988,-5.28 -2.64,-7.243c-1.651,1.963 -2.639,4.481 -2.639,7.243Z" style="fill:#0f7504;fill-rule:nonzero;"/><path d="M34.806,55.163l-1.773,-0c-1.557,-0 -2.83,-1.259 -2.83,-2.816l0,-16.002c0,-1.556 1.273,-2.815 2.83,-2.815l22.161,-0c1.557,-0 2.829,1.272 2.829,2.815l0,15.988c0,1.557 -1.272,2.816 -2.829,2.816l-7.554,0l-15.149,7.419l2.315,-7.405Z" style="fill:#fff;fill-rule:nonzero;"/></g><path d="M63.602,5.6l15.625,17.843l-23.205,-4.899l7.58,-12.944Z"/><path d="M10.773,22.24c15.717,-10.787 36.119,-13.78 52.922,-7.894" style="fill:none;stroke:#000;stroke-width:5px;"/><path d="M33.092,80.899l-23.206,4.899l15.625,-17.842l7.581,12.943Z"/><path d="M78.34,84.596c-15.717,-10.787 -36.119,-13.78 -52.922,-7.894" style="fill:none;stroke:#000;stroke-width:5px;"/></svg>